HIERARCHY
ROOT Hips
{
  OFFSET -35.4901 99.2528 17.4586
  CHANNELS 6 Xposition Yposition Zposition Zrotation Xrotation Yrotation
  JOINT LeftUpLeg
  {
    OFFSET 8.64259 1.95398 -2.38835
    CHANNELS 3 Zrotation Xrotation Yrotation
    JOINT LeftLeg
    {
      OFFSET 43.7702 0 0
      CHANNELS 3 Zrotation Xrotation Yrotation
      JOINT LeftFoot
      {
        OFFSET 40.6238 0 0
        CHANNELS 3 Zrotation Xrotation Yrotation
        JOINT LeftToeBase
        {
          OFFSET 12.7242 0 0
          CHANNELS 3 Zrotation Xrotation Yrotation
          End Site
          {
            OFFSET 0 0 0
          }
        }
      }
    }
  }
  JOINT RightUpLeg
  {
    OFFSET -8.2249 1.95398 -2.59336
    CHANNELS 3 Zrotation Xrotation Yrotation
    JOINT RightLeg
    {
      OFFSET 43.5653 0 0
      CHANNELS 3 Zrotation Xrotation Yrotation
      JOINT RightFoot
      {
        OFFSET 40.6238 0 0
        CHANNELS 3 Zrotation Xrotation Yrotation
        JOINT RightToeBase
        {
          OFFSET 12.7242 0 0
          CHANNELS 3 Zrotation Xrotation Yrotation
          End Site
          {
            OFFSET 0 0 0
          }
        }
      }
    }
  }
  JOINT Spine
  {
    OFFSET 0.165834 0.87714 6.61349
    CHANNELS 3 Zrotation Xrotation Yrotation
    JOINT Spine1
    {
      OFFSET 7.38963 1.71661e-005 0
      CHANNELS 3 Zrotation Xrotation Yrotation
      JOINT Spine2
      {
        OFFSET 11.9445 1.14441e-005 0
        CHANNELS 3 Zrotation Xrotation Yrotation
        JOINT Spine3
        {
          OFFSET 14.7254 4.19617e-005 0
          CHANNELS 3 Zrotation Xrotation Yrotation
          JOINT Spine4
          {
            OFFSET 10.9679 0 0
            CHANNELS 3 Zrotation Xrotation Yrotation
            JOINT RightShoulder
            {
              OFFSET 2.46616 -1.6653 3.69651
              CHANNELS 3 Zrotation Xrotation Yrotation
              JOINT RightArm
              {
                OFFSET 13.0012 0 0
                CHANNELS 3 Zrotation Xrotation Yrotation
                JOINT RightForeArm
                {
                  OFFSET 28.7848 1.52588e-005 0
                  CHANNELS 3 Zrotation Xrotation Yrotation
                  JOINT RightHand
                  {
                    OFFSET 26.5688 1.52588e-005 0
                    CHANNELS 3 Zrotation Xrotation Yrotation
                    End Site
                    {
                      OFFSET 0 0 0
                    }
                  }
                }
              }
            }
            JOINT LeftShoulder
            {
              OFFSET 2.38034 -1.29275 -3.7523
              CHANNELS 3 Zrotation Xrotation Yrotation
              JOINT LeftArm
              {
                OFFSET 16.3182 6.10351e-005 0
                CHANNELS 3 Zrotation Xrotation Yrotation
                JOINT LeftForeArm
                {
                  OFFSET 27.0901 0 0
                  CHANNELS 3 Zrotation Xrotation Yrotation
                  JOINT LeftHand
                  {
                    OFFSET 24.5451 1.52588e-005 0
                    CHANNELS 3 Zrotation Xrotation Yrotation
                    End Site
                    {
                      OFFSET 0 0 0
                    }
                  }
                }
              }
            }
            JOINT Neck
            {
              OFFSET 5.0226 -0.0266342 0
              CHANNELS 3 Zrotation Xrotation Yrotation
              JOINT Head
              {
                OFFSET 6.69364 2.86102e-005 0
                CHANNELS 3 Zrotation Xrotation Yrotation
                End Site
                {
                  OFFSET 0 0 0
                }
              }
            }
          }
        }
      }
    }
  }
}
MOTION
Frames:	9
Frame Time:	0.0416667
36.561 33.2773 7.33712 -136.095 -81.7457 -135.029 -23.7693 51.5712 -23.0625 -150.918 -13.9439 11.3651 95.5652 13.1075 -5.27369 11.3298 -2.6408 4.53127 63.8121 63.6629 174.099 -147.586 13.9455 -4.72176 126.772 -26.0359 6.14264 13.3237 -0.990861 3.5427 0.882396 12.9071 -90.3061 1.06202 1.64519 -0.538793 -10.608 1.61988 -0.610715 -33.1515 1.73103 -0.0192945 -13.1389 1.73104 -0.0193012 87.3172 -21.0846 -116.719 9.31323 -10.3212 -53.2414 2.54605 -49.6994 -9.63304 -40.8887 -7.54737 13.8619 -90.9602 -34.0261 72.8961 -8.08414 14.5874 -76.4288 -3.12038 48.3941 -1.43091 11.1461 2.02845 13.3669 19.4678 -3.77869 -2.24025 -0.201893 -2.92631 1.65858 
36.6762 33.2113 7.19611 -146.034 -82.0764 -144.539 -25.413 52.4798 -24.1276 -150.446 -15.4699 11.2222 95.3161 13.0391 -6.03187 10.4971 -3.30876 5.32565 65.2425 64.3159 170.822 -147.591 12.6137 -4.68629 129.799 -26.4204 8.18489 9.38331 0.291264 1.46963 0.794993 12.9641 -90.4176 0.948805 1.42889 -0.761131 -10.7216 1.39401 -0.823311 -33.2627 1.59156 -0.296435 -13.25 1.59156 -0.296418 87.3882 -20.8634 -116.696 8.30893 -10.4622 -54.3252 6.80183 -49.8449 -6.52313 -39.7817 -6.92121 12.5709 -90.9363 -33.7389 72.8434 -7.81357 14.8531 -76.4355 -3.39472 46.4106 -1.45571 15.27 2.62103 12.8738 20.0478 -2.43384 -0.824189 0.73626 -2.09903 -0.690388 
36.669 33.2044 7.18819 -145.912 -82.0357 -144.503 -25.3654 52.6038 -24.0838 -150.465 -15.2876 11.2169 95.0195 12.7131 -6.73679 10.9469 -4.84173 7.20355 65.1105 64.3283 171.056 -147.613 12.5891 -4.67526 129.478 -26.4517 7.89735 9.72834 0.245736 1.53114 0.786852 12.9548 -90.3944 0.967137 1.42139 -0.716638 -10.7033 1.38847 -0.778527 -33.2444 1.57104 -0.256243 -13.2317 1.57104 -0.256238 87.1892 -21.0741 -117.009 8.91686 -10.0811 -53.4976 4.88891 -49.1522 -8.34974 -34.921 -5.71278 11.2959 -90.9616 -33.5076 72.7205 -8.63438 14.6784 -76.0716 -1.92206 48.7651 -2.38052 10.2146 1.66601 11.5215 19.6738 -2.6157 -1.35774 0.973673 -2.10457 -0.236711 
36.6744 33.2259 7.20098 -145.824 -81.9785 -144.327 -26.0153 52.6479 -23.4423 -150.434 -15.5807 11.2019 97.8641 14.4103 -5.07564 9.1563 -1.55978 3.30205 65.2804 64.3212 170.912 -147.595 12.7933 -4.68537 129.426 -26.2856 8.08173 9.7954 0.313268 1.40803 0.801535 12.962 -90.4119 0.952935 1.44411 -0.749569 -10.7175 1.40971 -0.812419 -33.2587 1.60261 -0.28081 -13.246 1.6026 -0.280819 87.226 -20.9423 -117.008 9.67429 -10.1678 -52.9242 2.52515 -48.7826 -9.52531 -31.281 -4.6267 9.45927 -91.0001 -33.7257 72.7241 -8.33315 14.6631 -76.2114 -2.14931 49.1649 -2.44186 10.6225 2.03051 14.0687 19.7316 -2.58116 -1.19432 1.03096 -2.12124 -0.249582 
36.6665 33.2038 7.19941 -145.521 -81.9351 -144.097 -25.6276 52.628 -23.7487 -150.504 -15.4157 11.2068 96.7018 13.7274 -5.66447 11.4726 -2.979 4.9465 65.3457 64.3231 170.969 -147.597 12.6886 -4.66886 129.399 -26.5358 7.7189 9.91295 0.186374 1.62012 0.801838 12.9675 -90.4079 0.942041 1.44621 -0.741559 -10.7284 1.41218 -0.804501 -33.2696 1.6022 -0.27254 -13.257 1.6022 -0.272545 87.2925 -20.9272 -116.87 9.69931 -10.0936 -53.0106 2.47081 -50.956 -9.91512 -31.1653 -4.83561 10.2038 -91.0184 -33.7272 72.6917 -8.45326 14.5971 -76.2107 -2.25543 48.9482 -2.26969 10.4025 1.97258 13.9044 19.8797 -2.54761 -1.1516 0.970589 -2.09763 -0.15627 
36.6623 33.2157 7.18416 -146.046 -82.0296 -144.513 -25.2137 52.7157 -24.2812 -150.446 -15.3143 11.1954 95.0279 12.7414 -6.66005 13.348 -4.57897 6.98222 65.3672 64.1739 170.835 -147.555 12.6739 -4.69815 129.528 -26.5801 7.77428 9.69742 0.225 1.56986 0.795972 12.9668 -90.4378 0.943577 1.42329 -0.800544 -10.7269 1.38668 -0.86242 -33.2678 1.59807 -0.335697 -13.2551 1.59807 -0.335694 87.3661 -20.7213 -116.832 10.5176 -9.57337 -53.0474 2.77786 -51.4015 -9.22842 -34.1596 -5.66328 11.5466 -91.0659 -33.771 72.6209 -8.42151 14.5667 -76.169 -1.97047 49.2213 -2.57494 10.3628 1.94793 13.7463 19.8504 -2.54259 -0.736872 0.998632 -2.23265 -0.581107 
36.6579 33.2098 7.19509 -145.916 -81.9941 -144.458 -25.6962 52.6394 -23.7645 -150.474 -15.5633 11.1987 96.8855 13.7684 -5.80079 11.1174 -2.95559 5.03341 65.3606 64.245 170.872 -147.581 12.8263 -4.68845 129.491 -26.4497 7.90191 9.94277 0.281826 1.45099 0.801971 12.9823 -90.4392 0.912538 1.43475 -0.802295 -10.7579 1.39805 -0.864667 -33.2989 1.60953 -0.333905 -13.2863 1.60953 -0.333911 87.4587 -20.64 -116.675 10.0792 -9.68239 -53.104 2.81138 -50.4227 -9.66243 -32.8709 -5.23732 10.7375 -91.0046 -34.0169 72.8128 -8.18392 14.634 -76.5263 -2.26115 48.5234 -2.19573 10.635 1.8211 12.2896 20.1318 -2.53696 -0.627537 0.694198 -2.2592 -0.658627 
36.6359 33.2014 7.20882 -146.761 -82.0001 -145.368 -25.8932 52.8025 -23.6259 -150.449 -15.5392 11.1802 97.3697 13.9954 -5.72822 8.75397 -2.46277 4.32195 65.2983 64.2872 170.871 -147.617 12.7631 -4.68083 129.383 -26.6407 7.59467 9.98224 0.123877 1.72401 0.773265 12.9805 -90.4325 0.916118 1.38001 -0.791335 -10.7544 1.34385 -0.851314 -33.2949 1.55402 -0.33994 -13.2822 1.55402 -0.339927 87.3482 -20.7251 -116.869 9.94296 -9.84648 -53.0154 2.66864 -51.1776 -9.65211 -33.1082 -5.13902 10.1689 -91.0194 -34.0023 72.7818 -8.37462 14.5711 -76.291 -2.05152 49.7803 -2.59399 10.7669 2.19799 15.2768 19.7811 -2.53523 -0.615289 0.8879 -2.26942 -0.822894 
36.6178 33.2403 7.22816 -146.395 -82.0237 -145.108 -25.5146 52.7217 -23.8475 -150.492 -15.285 11.2089 95.2559 12.8325 -6.6393 13.1156 -4.13161 6.41419 65.5663 64.4152 170.633 -147.602 12.8247 -4.66074 129.637 -26.4989 7.88417 10.0505 0.302855 1.40523 0.781077 12.9964 -90.4532 0.884343 1.38793 -0.830744 -10.7862 1.35003 -0.891029 -33.3267 1.57342 -0.375127 -13.314 1.57342 -0.375132 87.6538 -20.3486 -116.416 9.39296 -10.0335 -53.6475 4.28336 -49.7301 -8.63452 -35.9368 -6.11089 12.1996 -91.0643 -34.6032 72.9 -7.75999 14.5335 -76.7295 -2.21494 50.3296 -2.66633 11.9647 1.95668 11.8003 20.4709 -2.45882 -0.108796 0.354455 -2.34676 -0.846594 
